<svg width="33" height="30" viewBox="0 0 33 30" fill="none" xmlns="http://www.w3.org/2000/svg">
<g id="Icon">
<path id="Vector" d="M26.6375 8.6953C26.5021 8.29537 26.3785 7.81668 26.2373 7.25921C25.9018 5.92613 25.1955 3.13879 24.1714 3.13879H9.34559C8.3215 3.13879 7.43277 5.61104 6.95604 6.932C6.7677 7.45311 6.6029 7.90151 6.43222 8.28325L3.67188 6.95624C3.78959 6.68962 3.94261 6.27758 4.10152 5.8413C4.88431 3.6599 6.20268 0 9.34559 0H24.1655C27.5439 0 28.568 4.04771 29.1742 6.46542C29.2919 6.932 29.4037 7.37434 29.4979 7.64701L26.6257 8.6953H26.6375Z" fill="#DE1B6A"/>
<path id="Vector_2" d="M25.6491 30H6.99171C2.9895 30 1.6417 25.7706 0.911887 23.4922C0.764747 23.0378 0.629378 22.6075 0.523438 22.347L3.6428 20.9109C3.82526 21.335 3.98417 21.8259 4.16074 22.3894C4.87289 24.6253 5.57328 26.4735 6.99171 26.4735H25.6491C27.0616 26.4735 27.9621 24.7465 28.9038 22.6681C29.1333 22.1591 29.3511 21.6865 29.5748 21.2866L32.5234 23.0681C32.3763 23.3225 32.1938 23.7225 31.9996 24.1527C31.0108 26.3341 29.357 29.9879 25.6491 29.9879V30Z" fill="#DE1B6A"/>
<path id="Vector_3" d="M9.48047 17.0395C9.82772 15.9064 10.1573 14.7733 10.5046 13.6401C18.0028 19.5117 14.7893 19.4996 22.2816 13.6401C22.6171 14.7793 22.9585 15.9185 23.2999 17.0577C14.4656 23.7836 18.2971 23.7836 9.48047 17.0577V17.0455V17.0395Z" fill="#DE1B6A"/>
</g>
</svg>
