<svg width="88" height="14" viewBox="0 0 88 14" fill="none" xmlns="http://www.w3.org/2000/svg">
<g id="Logo">
<path id="Vector" d="M2.75889 13.9959C2.26528 13.9959 1.81422 13.8743 1.40288 13.6255C0.991541 13.3794 0.665305 13.0514 0.4185 12.6441C0.171695 12.2341 0.046875 11.7844 0.046875 11.2923V10.2799H2.67946V11.1594C2.67946 11.2188 2.70215 11.2697 2.75038 11.3121C2.79577 11.3546 2.85251 11.3743 2.92059 11.3743H11.4396C11.5049 11.3743 11.5616 11.3546 11.6098 11.3121C11.6552 11.2697 11.6807 11.2216 11.6807 11.1594V8.52651C11.6807 8.46146 11.6552 8.41056 11.6098 8.37097C11.5644 8.33137 11.5077 8.31158 11.4396 8.31158H2.80428C2.30216 8.31158 1.84259 8.18997 1.42558 7.9411C1.00856 7.69506 0.676653 7.36701 0.424175 6.95977C0.171696 6.55254 0.046875 6.09439 0.046875 5.58817V2.70922C0.046875 2.21714 0.171696 1.76466 0.424175 1.35742C0.673816 0.947354 1.00856 0.619301 1.42558 0.376089C1.84259 0.130049 2.30216 0.00561523 2.80428 0.00561523H11.5588C12.0609 0.00561523 12.5204 0.127221 12.9346 0.367605C13.3488 0.610816 13.6835 0.933213 13.936 1.33762C14.1857 1.73921 14.3105 2.18321 14.3105 2.66963V3.72449H11.6779V2.86194C11.6779 2.79972 11.6524 2.74316 11.607 2.70074C11.5616 2.65832 11.5049 2.63287 11.4368 2.63287H2.91775C2.8525 2.63287 2.79577 2.65549 2.74754 2.70074C2.69932 2.74599 2.67662 2.79972 2.67662 2.86194V5.48353C2.67662 5.54575 2.69932 5.59948 2.74754 5.63625C2.79293 5.67301 2.84967 5.69281 2.91775 5.69281H11.3772C11.8708 5.69281 12.3219 5.81442 12.7332 6.06328C13.1445 6.30932 13.4708 6.63738 13.7176 7.04461C13.9644 7.45185 14.0892 7.91 14.0892 8.41621V11.2952C14.0892 11.7901 13.9672 12.2397 13.7176 12.647C13.4708 13.057 13.1417 13.3851 12.7332 13.6283C12.3219 13.8743 11.8708 13.9988 11.3772 13.9988H2.75889V13.9959Z" fill="white"/>
<path id="Vector_2" d="M16.5 13.996V0H29.4416V2.62442H19.1326V5.68719H27.4672V8.31162H19.1326V11.3744H29.4416V13.9988H16.5V13.996Z" fill="white"/>
<path id="Vector_3" d="M31.417 13.996V0H34.2964L43.0452 10.2262V0H45.6778V13.996H42.8863L34.0524 3.75281V13.996H31.4198H31.417Z" fill="white"/>
<path id="Vector_4" d="M47.6494 13.996V11.3659L57.9244 2.62442H47.6494V0H61.6889V2.63008L51.4139 11.3716H61.6889V13.996H47.6494Z" fill="white"/>
<path id="Vector_5" d="M64.1025 2.70113C64.1025 2.20824 64.2245 1.75712 64.4742 1.35056C64.721 0.941217 65.05 0.615411 65.4585 0.367576C65.8699 0.122525 66.3181 0 66.8146 0H75.413C75.9066 0 76.3605 0.122525 76.7775 0.367576C77.1945 0.612627 77.5264 0.941217 77.7704 1.35056C78.0144 1.75991 78.142 2.21102 78.142 2.70113V13.9957H75.5095V9.25901H66.5167V13.9957H64.1025V2.70113ZM75.5095 6.67484V2.8153C75.5095 2.75125 75.4839 2.69556 75.43 2.651C75.3761 2.60645 75.3194 2.58417 75.2513 2.58417H66.7521C66.6869 2.58417 66.6302 2.60645 66.5819 2.651C66.5337 2.69556 66.511 2.75125 66.511 2.8153V6.67484H75.5066H75.5095Z" fill="white"/>
<path id="Vector_6" d="M80.1133 13.996V0H82.7459V13.996H80.1133Z" fill="white"/>
<path id="Vector_7" d="M84.5029 14.0002V11.3757H87.1355V14.0002H84.5029Z" fill="#81E3E2"/>
</g>
</svg>
